<?xml version="1.0" encoding="utf-8"?>
<!-- Generator: Adobe Illustrator 20.1.0, SVG Export Plug-In . SVG Version: 6.00 Build 0)  -->
<svg version="1.1" id="Layer_1" xmlns="http://www.w3.org/2000/svg" xmlns:xlink="http://www.w3.org/1999/xlink" x="0px" y="0px"
	 viewBox="0 0 986.4 1029.9" style="enable-background:new 0 0 986.4 1029.9;" xml:space="preserve">
<style type="text/css">
	.st0{fill:#393F3B;}
	.st1{fill:#F2E6B0;}
</style>
<path class="st0" d="M985.4,121.1c-5.9-33.8-86.2-39.2-113.7-42.4c-35.1-4.1-116.2-9.7-138.5-10.7c-15.7-0.7-37-0.5-51.7-6.4
	c-15.8-6.5-38.6-25.3-43.7-25.3H135.2h-2c-11,11.3-18.8,24.6-28,39.6C82.9,112.1,64.2,173.6,61,222c-3.7,56.3-2.7,117.8,5.7,173.6
	c7.6,50.1,29.8,105.1,52.2,149.2c25,49,38.9,106.8,41.5,160.8c1,21.9-5.2,69.1-26.8,130.5c-9.2,26.1-20.9,51.2-31.5,76.8
	c0.2-0.4-6,13.1-6,13.1l390.5,103.9c0,0,16.2-32.2,25.3-46s16.7-57.5,21.4-74.5c11.9-43.1,91.4-12.1,124.5-10.9
	c24.3,0.9,43.6-5.2,57.9-19c8.2-8,12.5-19.4,13.5-30.5c1.1-11.7-8-34.1-4.8-44c3.4-10.4,15.4-10,22.7-15.9
	c10.5-8.5,11.2-14.8,12.7-28.3c1.2-10.5-2.8-8.1,5.5-14.3c12.3-9.2,15-5.4,17.6-21.3c3.5-21.9-1.5-54.1,29.2-57.4
	c21.7-2.3,48.1,6.7,54.9-22c4.9-20.6-6.9-49.4-12.9-68.2c-8.8-28-20.8-54.8-33.5-81.3c-11.7-24.5-7.7-45.7-7.7-72
	c0-15.4,0.1-31.6-1.5-46.9c-2.4-22.1-8.3-22.3,12.3-27.9c46.2-12.4,81.1-40.5,105.9-81.7c13.2-21.9,26.2-44,36.2-67.8
	C975.5,176.5,990.3,147.8,985.4,121.1z"/>
<path class="st1" d="M926.5,84.8c-5.9-33.8-86.2-39.2-113.7-42.4c-35.1-4.1-116.2-9.7-138.5-10.7c-15.7-0.7-37-0.5-51.7-6.4
	C606.8,18.8,584,0,578.9,0H76.2h-2c-11,11.3-18.8,24.6-28,39.6C24,75.9,5.2,137.4,2,185.8c-3.7,56.3-2.7,117.8,5.7,173.6
	c7.6,50.1,29.8,105.1,52.2,149.2c25,49,38.9,106.8,41.5,160.8c1,21.9-5.2,69.1-26.8,130.5c-9.2,26.1-20.9,51.2-31.5,76.8
	c0.2-0.4-6,13.1-6,13.1l390.5,103.9c0,0,16.2-32.2,25.3-46c9.2-13.9,16.7-57.5,21.4-74.5c11.9-43.1,91.4-12.1,124.5-10.9
	c24.3,0.9,43.6-5.2,57.9-19c8.2-8,12.5-19.4,13.5-30.5c1.1-11.7-8-34.1-4.8-44c3.4-10.4,15.4-10,22.7-15.9
	c10.5-8.5,11.2-14.8,12.7-28.3c1.2-10.5-2.8-8.1,5.5-14.3c12.3-9.2,15-5.4,17.6-21.3c3.5-21.9-1.5-54.1,29.2-57.4
	c21.7-2.3,48.1,6.7,54.9-22c4.9-20.6-6.9-49.4-12.9-68.2c-8.8-28-20.8-54.8-33.5-81.3c-11.7-24.5-7.7-45.7-7.7-72
	c0-15.4,0.1-31.6-1.5-46.9c-2.4-22.1-8.3-22.3,12.3-27.9c46.2-12.4,81.1-40.5,105.9-81.7c13.2-21.9,26.2-44,36.2-67.8
	C916.6,140.3,931.3,111.6,926.5,84.8z"/>
</svg>
