<svg id="Layer_1" data-name="Layer 1" xmlns="http://www.w3.org/2000/svg" viewBox="0 0 781.81 279.34"><defs><style>.cls-1{fill:#393f3b;}.cls-2{fill:#f2e6b0;}</style></defs><title>type-logo</title><path class="cls-1" d="M60.53,51.38H162.78q27.23,0,42,13.06t14.73,37q0,13.34-4.72,22.92a37.92,37.92,0,0,1-13.06,15.14q11.94,5.28,17.92,13.61t6,23.62q0,25.29-16.12,39.46t-45,14.17H60.53Zm86.13,70q16.11,0,16.12-14.45T145.83,92.5H117.21v28.9Zm1.11,68.07q8.61,0,12.78-3.75t4.17-11.81q0-14.44-17.5-14.45h-30v30Z"/><path class="cls-1" d="M230.58,51.38H369.78V95.56H290.31v22.78H359.5v45.29H290.31v22.51h79.47v44.18H230.58Z"/><path class="cls-1" d="M378.95,51.38h50.29l58.9,82.52V51.38h59.74V230.32H497l-58.35-82.24v82.24H378.95Z"/><path class="cls-1" d="M558.44,226.7V177.25q13.06,5.28,31.4,5.28,13.61,0,19.45-5.56t5.83-18.62v-107h59.74v119.2q0,30.29-18.62,46.4T602.06,233.1Q576.78,233.1,558.44,226.7Z"/><path class="cls-1" d="M684,51.38h59.74V230.32H684Z"/><path class="cls-2" d="M34.29,27.5H136.54q27.23,0,42,13.06t14.73,37q0,13.34-4.72,22.92a37.92,37.92,0,0,1-13.06,15.14q11.94,5.28,17.92,13.61t6,23.62q0,25.29-16.12,39.46t-45,14.17H34.29Zm86.13,70q16.11,0,16.12-14.45T119.59,68.62H91v28.9Zm1.11,68.07q8.61,0,12.78-3.75T138.49,150q0-14.44-17.5-14.45H91v30Z"/><path class="cls-2" d="M204.34,27.5H343.54V71.68H264.08V94.46h69.19v45.29H264.08v22.51h79.47v44.18H204.34Z"/><path class="cls-2" d="M352.71,27.5H403L461.91,110V27.5h59.74V206.44H470.8l-58.35-82.24v82.24H352.71Z"/><path class="cls-2" d="M532.2,202.83V153.37q13.06,5.28,31.4,5.28,13.61,0,19.45-5.56t5.83-18.62V27.5h59.74V146.7q0,30.29-18.62,46.4t-54.18,16.12Q550.54,209.22,532.2,202.83Z"/><path class="cls-2" d="M657.79,27.5h59.74V206.44H657.79Z"/></svg>