<?xml version="1.0" encoding="utf-8"?>
<!-- Generator: Adobe Illustrator 22.0.1, SVG Export Plug-In . SVG Version: 6.00 Build 0)  -->
<svg version="1.1" xmlns="http://www.w3.org/2000/svg" xmlns:xlink="http://www.w3.org/1999/xlink" x="0px" y="0px"
	 viewBox="0 0 500 445.3" style="enable-background:new 0 0 500 445.3;" xml:space="preserve">
	 <g>
	<path fill="#EDE8B9" d="M433.7,308.7c-2-5.8-5-11.3-8.7-16.2c-3.6-4.7-7.8-8.9-12.6-12.4c-4.8-3.5-10.1-6.3-15.8-8.3
		c-5.9-2.1-12.1-3.2-18.3-3.3c-3.2-0.1-6.4,0.1-9.6,0.5c-4.3,0.6-8.4,1.6-12.5,3.1l-19.6-42.8c10.3-1.4,20.3-2.5,23.2-1.6
		l0.4,0.1c1.5,0.5,1.9,0.7,2.3,1.4c0.3,0.9,0.1,5.2-4.6,8.5l5.5,7.8c4.7-3.3,6.8-7.3,7.7-10.1c1.3-3.7,1.3-7.4,0-10.2
		c-2.2-4.7-6.2-5.9-8.2-6.5l-0.3-0.1c-5.3-1.6-15.8-0.3-33.9,2.1l-6.6,0.9l11.1,21.9l-65.5,10.2L194.6,98
		c-6.9-14.6-19.2-14-27.8-12.3c-10.8,2.1-22.3,7.3-33,14.2c-4.5-8.7-7.7-37.9-1.1-50.2c1.2-2.2,0.4-4.9-1.8-6.1
		c-2.2-1.2-4.9-0.4-6.1,1.8c-5,9.3-5.7,26.7-3.7,41.1c-22.8-21.4-47.8-30.4-57-32.1c-2.4-0.5-4.8,1.1-5.2,3.6
		c-0.5,2.4,1.1,4.8,3.6,5.2c7.7,1.4,30.1,9.5,50.8,28.3c-16.7-5.7-39.7-9-57.5,5.9c-1.9,1.6-2.2,4.4-0.6,6.3
		c1.6,1.9,4.4,2.2,6.3,0.6c20.5-17.1,51.5-4.1,63.4,1.9c-9.6,7.6-17.9,16.5-23.4,25.7c-4.9,8.2-9.1,19.1,2.4,30.4l70.7,69.4
		c-0.2,0.2-0.4,0.3-0.6,0.5c-0.4,0.3-0.5,0.4-0.5,0.4l0.1,0.9c0,0,0.2,0.1,0.6,0.3c0.4,0.2,1,0.4,1.8,0.6c0.6,0.2,1.3,0.4,2,0.6
		l32.5,31.8l-11.3,30.3c-4.8-1.3-9.7-2.1-14.7-2.2c-3.2-0.1-6.4,0.1-9.6,0.5c-6.4,0.9-12.6,2.7-18.3,5.6
		c-5.4,2.7-10.4,6.1-14.8,10.3c-4.3,4.1-8,8.8-11,13.9c-3,5.2-5.2,10.9-6.5,16.8c-1.4,6.2-1.8,12.6-1.2,19
		c0.6,6.4,2.3,12.7,4.9,18.5c2.5,5.6,5.8,10.7,9.8,15.3c3.9,4.5,8.5,8.3,13.5,11.5c5.1,3.2,10.7,5.6,16.4,7.1
		c6.1,1.6,12.5,2.3,18.8,1.9c6.5-0.4,12.9-1.8,18.9-4.2c5.6-2.3,10.9-5.4,15.6-9.2c4.6-3.7,8.6-8.2,11.9-13.1
		c3.4-5,6-10.4,7.7-16.1c1.8-6,2.7-12.2,2.6-18.5c0-0.9-0.1-1.8-0.1-2.8l29.1-4l8.5-11.6l5.1,5c2.5,2.5,5.8,3.5,9,3.1
		c1.6-0.2,3.1-0.8,4.5-1.8c4.2-2.9,5.5-8.4,3.2-13.2l-6.6-14l43.2-58.9l8.7,19.6c-4.6,2.5-8.8,5.6-12.6,9.2
		c-4.3,4.1-8,8.8-11,13.9c-3,5.2-5.2,10.9-6.5,16.8c-1.4,6.2-1.8,12.6-1.2,19c0.6,6.4,2.3,12.7,4.9,18.5
		c2.5,5.6,5.8,10.7,9.8,15.3c3.9,4.5,8.5,8.3,13.5,11.5c5.1,3.2,10.7,5.6,16.4,7.1c6.1,1.6,12.5,2.3,18.8,1.9
		c6.5-0.4,12.9-1.8,18.9-4.2c5.6-2.3,10.9-5.4,15.6-9.2c4.6-3.7,8.6-8.2,11.9-13.1c3.4-5,6-10.4,7.7-16.1
		c1.8-6,2.7-12.2,2.6-18.5C437,321.3,435.8,314.8,433.7,308.7z M205.4,308.2c2.7,1.3,5.2,2.7,7.6,4.4c4.2,2.9,7.9,6.5,11.1,10.5
		c3.3,4.2,5.9,8.8,7.7,13.8c0.8,2,1.4,4.1,1.9,6.2l-43.2,5.9L205.4,308.2z M233.2,369.3c-1.4,5-3.6,9.7-6.4,14.1
		c-2.8,4.3-6.2,8.2-10.1,11.5c-2,1.7-4.2,3.3-6.4,4.6c1.6-1,3.3-2,4.9-3c-1.2,0.8-2.5,1.5-3.7,2.3c0.4-0.3,0.9-0.5,1.3-0.8
		c-0.8,0.5-1.6,1-2.4,1.4c-1.1,0.7-1.6,1-0.2,0.1c-4.6,2.8-9.7,4.9-15,6.2c-5.5,1.3-11.1,1.7-16.7,1.3
		c-5.3-0.5-10.4-1.7-15.3-3.7c-4.7-2-9.2-4.6-13.2-7.9c-4-3.3-7.5-7.1-10.3-11.4c-3-4.5-5.2-9.4-6.7-14.5
		c-1.5-5.4-2.2-11.1-1.9-16.7c0.3-5.3,1.3-10.6,3.2-15.5c1.8-4.8,4.3-9.3,7.4-13.4c3.1-4.1,6.8-7.7,11-10.8
		c4.3-3.1,9.1-5.5,14.2-7.2c5.4-1.8,11-2.6,16.7-2.6c4.3,0,8.6,0.6,12.8,1.7l-20.8,55.8l59.5-8.1c0,0.2,0,0.4,0,0.7
		C235.3,358.7,234.7,364.1,233.2,369.3z M242,342c-0.5-2.3-1.2-4.6-2-6.9c-2-5.8-5-11.3-8.7-16.2c-3.6-4.7-7.8-8.9-12.6-12.4
		c-3.3-2.4-6.8-4.4-10.4-6.1l9.2-25.3l44.2,64.2L242,342z M269.8,334.4l-19.9-29l24,23.5L269.8,334.4z M294.6,335.2
		c-0.4,0.3-1.3,0.6-2.4-0.4l-6-5.9l-7.1-7L226.1,270l-31.6-31l-3.4-3.4l-8.3-8.1L110,156.1c-6.1-6-6.3-10.9-1-19.8
		c11.6-19.4,37.8-37.9,59.5-42.2c0.9-0.2,1.7-0.3,2.5-0.4c8.2-1.1,12.6,1.2,15.8,8l12.5,26.7c0,0,0,0,0,0
		c-10.3,2.8-32.6,12.8-41.3,30.7c-1.1,2.2-0.1,4.9,2.1,6c0.8,0.4,1.7,0.5,2.6,0.4c1.4-0.2,2.8-1.1,3.4-2.5
		c7.9-16.3,30.6-25,37.1-26.3l5.6,12l5.2,11.1h0c-8,1.8-25,8.4-33.3,23.6c-1.2,2.2-0.4,4.9,1.8,6.1c0.9,0.5,1.8,0.6,2.8,0.5
		c1.4-0.2,2.6-1,3.3-2.3c7.3-13.4,23.7-18.7,28.8-19.5c0.2,0,0.3-0.1,0.4-0.2c0,0,0,0,0,0l6.9,14.7l3.2,6.9
		c-7.4,1.6-19.8,6-26.3,20c-1,2.2-0.1,4.9,2.2,6c0.8,0.4,1.7,0.5,2.5,0.4c1.5-0.2,2.8-1.1,3.5-2.6c5-10.8,14.7-14,22.1-15.4h0
		l26.8,57.1l4.2,9l22.8,48.6l4.7,10.1l4.6,9.8C295.6,334.2,295,334.9,294.6,335.2z M291.5,305l-19.7-42.1l57.7-9L291.5,305z
		 M426.9,342.9c-1.4,5-3.6,9.7-6.4,14.1c-2.8,4.3-6.2,8.2-10.1,11.5c-2,1.7-4.2,3.3-6.4,4.6c1.6-1,3.3-2,4.9-3
		c-1.2,0.8-2.5,1.5-3.7,2.3c0.4-0.3,0.9-0.5,1.3-0.8c-0.8,0.5-1.6,1-2.4,1.4c-1.1,0.7-1.6,1-0.2,0.1c-4.6,2.8-9.7,4.9-15,6.2
		c-5.5,1.3-11.1,1.7-16.7,1.3c-5.3-0.5-10.4-1.7-15.3-3.7c-4.7-2-9.2-4.6-13.2-7.9c-4-3.3-7.5-7.1-10.3-11.4
		c-3-4.5-5.2-9.4-6.7-14.5c-1.5-5.4-2.2-11.1-1.9-16.7c0.3-5.3,1.3-10.6,3.2-15.5c1.8-4.8,4.3-9.3,7.4-13.4
		c3.1-4.1,6.8-7.7,11-10.8c1.6-1.2,3.3-2.3,5.1-3.2l21,47.3l8.5-4.3l-21.4-46.6c0.3-0.1,0.6-0.2,0.9-0.3c5.4-1.8,11-2.6,16.7-2.6
		c5.3,0,10.7,0.9,15.8,2.6c4.9,1.6,9.5,3.9,13.7,6.9c4.2,2.9,7.9,6.5,11.1,10.5c3.3,4.2,5.9,8.8,7.7,13.8
		c2,5.2,3.1,10.8,3.3,16.4C429,332.3,428.4,337.7,426.9,342.9z"/>
	</g>
</svg>
