<?xml version="1.0" encoding="utf-8"?>
<!-- Generator: Adobe Illustrator 22.0.1, SVG Export Plug-In . SVG Version: 6.00 Build 0)  -->
<svg version="1.1" xmlns="http://www.w3.org/2000/svg" xmlns:xlink="http://www.w3.org/1999/xlink" x="0px" y="0px"
	 viewBox="0 0 500 445.3" style="enable-background:new 0 0 500 445.3;" xml:space="preserve">
<style type="text/css">
	.st0{fill:none;stroke:#000000;stroke-width:2.233;stroke-miterlimit:10;}
	.st1{fill:none;stroke:#000000;stroke-width:1.9003;stroke-miterlimit:10;}
	.st2{fill:none;stroke:#000000;stroke-width:2;stroke-miterlimit:10;}
	.st3{fill:none;stroke:#000000;stroke-width:1.9003;stroke-miterlimit:10;stroke-dasharray:12;}
	.st4{fill:#DDC9B3;}
	.st5{fill:#231F20;}
	.st6{fill:#FFFFFF;}
	.st7{fill:none;stroke:#000000;stroke-width:0.9447;stroke-miterlimit:10;}
	.st8{fill:none;stroke:#000000;stroke-width:1.072;stroke-miterlimit:10;}
	<!-- path{fill:#EDE8B9;} -->
</style>
<g id="Borders">
</g>
<g id="Text">
	<g>
		<path class="color" d="M188.7,154.9c0.1-0.7,0.1-1.4,0.3-2c0.7-2.9,1.6-5.9,2.1-8.8c0.2-1.3,1-2.6,0.6-4.1c-0.1-0.2,0.3-0.7,0.6-1
			c0.5-0.8,1.2-1.5,0.9-2.6c-0.1-0.2,0.4-0.8,0.6-0.8c0.5,0,1.1,0,1.4,0.3c2.4,2.6,3.9,5.6,1.7,9.5c-0.5,0.8-0.9,1.8-0.8,2.7
			c0.2,2.2-1.1,3.9-1.3,6c-0.3,2.7,0.7,4,2.5,5.4c1.5,1.1,3.3,1.9,4.3,3.6c0.4,0.6,1.4,0.7,2.1,1.5c1.9,2.2,4,4.2,6.8,5
			c-0.2,1-0.4,1.9-0.7,2.7c-0.4,1.4-2.7,1.7-4,0.7c-0.6-0.5-1.4-0.8-2.2-1.2c-0.2-0.1-0.4-0.2-0.6-0.3c-1-0.5-2.1-1-3.1-1.5
			c-0.2-0.1-0.6-0.1-0.7-0.3c-0.8-1.3-2-2-3.3-2.8c-1.4-0.9-2.7-2-4-3.1c-0.4-0.3-0.8-0.6-1.1-1c-0.5-1-1.4-1.3-2.4-1.3
			c-1,0-1.5,0.6-1.8,1.4c-0.1,0.3-0.7,0.7-1,0.7c-1.4,0.1-2.8,0.2-4.2,0.2c-0.4,0-0.9-0.2-1.3-0.4c-1.2-0.7-2.5-1-3.9-0.4
			c-0.2,0.1-0.4,0.2-0.6,0.1c-1.7-0.3-3.4-0.7-5.2-1.1c-0.7-0.2-1.5-0.4-2.2-0.6c-1.4-0.5-2.8-1-4.3-1.6c-0.1-0.1-0.4-0.3-0.4-0.4
			c0.3-1.3,0.4-2.8,1.1-3.9c0.9-1.2,2.3-1.7,4-0.9c1.1,0.5,2.4,0.6,3.6,0.6c1.1,0,1.7,0.6,2.5,1.2c0.7,0.7,1.6,1.3,2.5,0.4
			c0.9-0.9,0.5-1.7-0.2-2.5c-0.9-1.1-1.6-2.2-2.4-3.3c-0.2-0.3-0.5-0.5-0.8-0.6c-2.2-0.3-3.3-1.9-4.4-3.6c-0.1-0.2-0.2-0.5-0.4-0.6
			c-1-0.8-2.2-1.5-3-2.5c-1-1.2-2.1-2.5-2-4.2c0-0.3,0.7-0.7,1.2-0.8c0.7-0.2,1.4-0.3,2.1-0.3c0.4,0,0.8,0,1.1,0.2
			c0.8,0.7,1.6,1.6,2.4,2.4c1.1,1.1,2.1,2.2,3.3,3.1c2,1.6,4.1,3,6.1,4.5c1.4,1,2.8,1.8,4.2,2.8c0.6,0.4,1.1,1.1,1.6,1.6
			c0.8,0.7,1.5,1.4,2.3,2.1C188.4,155.1,188.5,155,188.7,154.9z"/>
		<path class="color" d="M270.6,255.5c2-1,1.3-2.7,1.4-4.2c0-0.4,0.5-0.9,0.9-1.2c0.8-0.8,1.3-1.6,1.3-2.8c0-1.6,0.5-3.2-0.2-4.8
			c-0.3-0.8-0.1-1.8,1.1-2.4c1.4-0.8,3.4-1.3,3.5-3.3c0.1-1.4,0.8-2.3,1.4-3.3c0.3-0.4,1-0.8,1.6-0.8c1.5-0.1,3.1,0,4.6-0.1
			c1,0,1.7,0,2.6,0.8c0.7,0.7,2.1,1,3.1,1c1.4,0,2.9-0.5,4.3-0.7c0.3,0,0.6-0.2,0.8,0c1.1,1,2.2,2,3.3,3c0.1,0.1,0.1,0.5,0,0.7
			c-0.4,1.8-1.3,2.4-3.1,2.4c-1.8,0-3.7,0.2-5.5,0.4c-0.2,0-0.4,0.1-0.6,0.1c-2-0.4-3.9-0.9-5.9-1.2c-1.4-0.2-2.8-0.3-4.2-0.4
			c-0.7,0-1.2,0.6-0.8,1.2c1.4,1.9,0.5,3.8,0,5.7c-0.6,2.4-0.7,4.9-1.1,7.4c-0.1,0.5-0.4,1.1-0.6,1.6c-0.4,1.6-0.7,3.2-1.1,4.8
			c-0.2,0.8-0.8,1.2-1.7,1.2c-0.2,0-0.4,0.1-0.6,0.1c-2.3,0.5-2.4,0.5-3.5-1.5C271,258,270.9,256.7,270.6,255.5z"/>
		<path class="color" d="M267.7,335.2c-0.8,1.5-1.5,2.8-2.2,4.2c-0.8,1.4-3.3,1.9-4.6,0.9c-0.4-0.3-0.9-0.4-1.3-0.6c-1.1-0.4-1.3-1.3-0.8-2.3
			c0.8-1.3,1.3-2.6,1-4.2c-0.1-0.6,0.2-1.2,0.1-1.8c-0.1-2.4,1.6-4.5,1.5-6.9c0-1.6-0.6-3.2,0.8-4.6c0.4-0.4,0.3-1.2,0.4-1.8
			c0.3-1.5,1.4-1.6,2.6-1.4c2.1,0.4,2.1,0.6,2.4,2.4c0.5,2.6-1,4.8-0.9,7.3c0,0.9-0.4,1.9-0.6,2.8
			C265.6,331.7,265.7,333.7,267.7,335.2z"/>
		<path class="color" d="M255.5,217.5c0.8-1.7,2-1.6,3.4-1c1.2,0.5,2.6,0.8,3.9,1.1c1.3,0.2,2.2,0.8,2.8,2c0.8,1.6,2.5,2.1,3.8,3.1
			c0.4,0.3,0.8,0.6,1.1,1c0.2,0.2,0.3,0.5,0.5,0.6c1.3,0.7,1.9,1.9,2.4,3.2c0.1,0.4,0.7,0.7,1.1,0.9c1.3,0.5,2.6,0.9,3.9,1.4
			c0,0.8,0,1.8,0.1,2.7c0.1,1-0.4,1.3-1.3,1.6c-2.3,0.6-2.3,0.6-3.3-1.5c-0.4-0.8-1.1-1.8-1.9-2c-2-0.7-3.5-2-5-3.3
			c-0.3-0.2-0.9-0.4-1.2-0.3c-1.2,0.4-1.8-0.4-2.1-1.2c-0.3-1.2-1-1.6-2-2.1c-0.4-0.2-0.9-0.3-1.1-0.6c-1.3-1.4-2.4-2.9-3.7-4.3
			C256.4,218.3,255.9,217.9,255.5,217.5z"/>
		<path class="color" d="M114.7,153.5c-2-0.3-3.4-0.3-4.6-0.9c-1.8-0.8-3.4-1.8-5-2.9c-1.3-1-2.4-2.3-3.6-3.5c-1-1-0.9-2.4,0.3-3.2
			c0.5-0.3,1.1-0.8,1.5-0.7c1,0.3,2.1,0.8,2.7,1.5c1.5,1.8,3,3.3,5.2,3.9c1.2,0.3,2.5,0.1,3.7,0.2c2.5,0.2,5.1,0.3,7.6,0.7
			c1.4,0.2,1.8,2.3,0.6,3.1c-1.2,0.8-2.5,1.6-3.9,1.8C117.6,153.8,115.8,153.5,114.7,153.5z"/>
		<path class="color" d="M205.2,83.3c-0.1-1.5-0.1-2.9-0.1-4.4c0-2.5,1.2-4.5,2.6-6.4c0.3-0.3,0.6-0.8,0.6-1.1c-0.2-1.5,0.8-1.3,1.7-1.2
			c0.5,0.1,1,0.2,1.5,0.4c1.8,0.5,2.3,2.3,1.3,3.9c-0.5,0.9-0.7,2.1-0.7,3.1c0.1,1.7-0.6,3-1.2,4.4c-0.6,1.3-1.7,2.5-1,4.2
			c0.5,1-0.3,2-1.4,2.3c-0.2,0-0.3,0.1-0.5,0.1c-2.5,0.6-3.9-0.8-3.5-3.4c0.1-0.6,0.2-1.3,0.3-1.9C205,83.3,205.1,83.3,205.2,83.3z"
			/>
		<path class="color" d="M359.3,246c1.1,0.3,1.9,0.7,2.7,0.8c0.9,0.2,2.1,2.3,1.8,3.3c-0.4,1.7-1.6,2.3-3.3,2c-0.7-0.1-1.5,0-2.2-0.1
			c-2.6-0.6-5.1-1.4-7.7-2c-1.6-0.4-3.2-0.8-4.8-0.8c-1.1,0-1.6-0.6-2.1-1.3c-1.1-1.4-0.9-3.3,0.4-3.8c0.8-0.3,1.8-0.2,2.7-0.1
			c1.1,0.2,2.2,0.8,3.4,1.1c1.6,0.3,3.2,0.4,4.8,0.7c0.8,0.1,1.6,0.3,2.4,0.4C358.2,246.2,358.9,246,359.3,246z"/>
		<path class="color" d="M422.9,265.1c0.5-1.5,0.9-2.7,1.4-3.9c0.4-0.9,2.6-1.1,3.3-0.6c0.7,0.5,1.5,0.8,2.3,1.2c0.3,0.2,0.8,0.4,0.8,0.6
			c0,0.3-0.3,0.7-0.6,0.9c-0.7,0.5-1.4,0.9-1,2c0.1,0.2-0.3,0.6-0.5,0.8c-0.2,0.2-0.6,0.3-0.8,0.5c-0.7,1.2-1.4,1.4-2.6,0.4
			c-0.4-0.3-1.4-0.2-1.9-0.9C423.2,265.7,423,265.3,422.9,265.1z"/>
		<path class="color" d="M244.6,207.6c0.2-0.8,0.4-1.5,0.6-2.3c0.2-0.8,0.5-1.5,1.6-0.9c0.3,0.1,0.9,0.1,1.1-0.2c0.7-0.7,1.2-0.4,1.8,0.2
			c0.1,0.1,0.2,0.2,0.3,0.3c1.9,1.7,1.9,1.8,1,4.1c-0.7,1.7-2,2.2-3.7,2.4c-0.1,0-0.2,0-0.3,0c-0.9-1.1-1.8-2.3-2.6-3.4
			C244.4,207.7,244.5,207.6,244.6,207.6z"/>
		<path class="color" d="M268.9,281.2c-0.6-0.3-1.5-0.4-1.7-0.9c-0.4-1-0.6-2.1-0.7-3.1c0-0.2,0.5-0.5,0.7-0.8c0.3-0.4,0.8-0.7,1-1.1
			c0.4-1,1.1-0.9,1.6-0.4c0.9,0.9,1.9,1.6,3.2,2.1c1.1,0.4,0.7,1.5,0.3,2.3C272.5,281,271.4,281.5,268.9,281.2z"/>
		<path class="color" d="M253.9,380.7c1,0.2,2.2,0.2,2.3,1.6c0,0.1,0.2,0.2,0.3,0.3c0.7,0.2,1.3,0.7,1.1,1.3c-0.4,0.9-0.3,2.1-1.8,2.4
			c-2.5,0.6-4.7-0.5-5.2-3.2c-0.4-1.9,0.5-2.9,2.5-2.7C253.3,380.6,253.6,380.6,253.9,380.7z"/>
		<path class="color" d="M140.5,117.7c0.2-1.1,1.8-2.3,3-2.3c1.1,0,2.3,1.1,2.6,2.2c0.1,0.4,0.3,0.8,0.3,1.2c0.3,2.2-0.9,3.4-3.2,3.1
			C141,121.7,140.1,120.3,140.5,117.7z"/>
		<path class="color" d="M217.9,183.3c0.6-1.1,0.9-2.3,1.7-2.8c0.8-0.5,2.3-0.6,3-0.1c2.4,1.4,2.1,5.3-0.4,6.6c-0.3,0.2-1,0-1.4-0.3
			c-0.8-0.5-1.6-1.1-2.2-1.8C218.1,184.5,218.1,183.8,217.9,183.3z"/>
		<path class="color" d="M203.5,120.4c-1.7,2.3-4,2.9-6.4,1.7c-1.1-0.6-1.3-2.5-0.4-3.5c0.2-0.2,0.6-0.4,0.8-0.7c1.3-1.7,2.9-1.6,4.1,0.3
			C202.1,119,202.8,119.6,203.5,120.4z"/>
		<path class="color" d="M248.4,408.5c0.3,0.1,0.6,0.2,0.8,0.1c1.5-0.5,1.5,0.6,1.7,1.5c0.1,1,0.1,2,0.2,3c0.1,1.4-1.1,1.7-2,2
			c-0.4,0.2-1.2-0.3-1.7-0.7c-1.5-1.1-2-2.6-1.5-4.4C246.1,408.9,247.4,408.2,248.4,408.5z"/>
		<path class="color" d="M258.9,357.8c0.7,0.6,1.2,0.9,1.5,1.3c0.5,1,0.9,2,1,3.1c0,0.4-0.8,1-1.3,1.5c-0.4,0.4-0.8,0.7-1.2,1.1
			c-0.4,0.3-0.8,0.7-1.1,0.6c-0.3-0.1-0.8-0.7-0.8-1c0.1-1.4-0.8-2.2-1.6-3.1c-0.2-0.3-0.4-1.1-0.2-1.2
			C256.4,359.2,257.7,358.5,258.9,357.8z"/>
		<path class="color" d="M315.7,241.8c-0.3,1.8-2.8,3.2-4.1,2.7c-0.3-0.1-0.6-0.3-0.8-0.3c-1.3,0-1.9-0.6-1.8-1.8c0-1.5,1-2.9,2.2-3.2
			c1.4-0.4,2.6-0.4,3.4,1.2C314.7,241,315.4,241.5,315.7,241.8z"/>
		<path class="color" d="M333.2,244c-0.6,0.6-1.3,1.4-2.1,2c-0.3,0.2-1-0.2-1.5-0.4c-1.4-0.5-2.2-1.6-2.6-2.9c-0.1-0.4,0.4-1.2,0.9-1.7
			c0.6-0.6,1.3-1.1,2-1.5c0.3-0.2,0.9,0,1.2,0.2c0.4,0.3,0.5,0.9,0.9,1.1C333.4,241.3,333.2,242.5,333.2,244z"/>
		<path class="color" d="M202.6,108.4c-1.4-0.3-2.6-2.1-2.1-3.6c0.1-0.3,0.5-0.5,0.7-0.7c0.4-0.2,0.8-0.4,1.1-0.7c1.2-1,3.3-0.6,3.7,0.9
			c0.3,1.1,0.3,2.5-0.2,3.4C205.3,108.9,203.9,108.8,202.6,108.4z"/>
		<path class="color" d="M220,33.5c-0.6-0.2-1.1-0.3-1.6-0.5c-1.5-0.6-1.9-2.4-0.8-3.5c0.3-0.3,0.5-0.6,0.6-0.9c0.7-1.4,1.6-1.6,2.8-0.7
			c1.6,1.2,1.9,4.1,0.5,5.4C221.2,33.6,220.5,33.4,220,33.5z"/>
		<path class="color" d="M156.2,134c-1.1,0-1.3-0.9-1.4-1.5c-0.1-0.7,0-1.6,0.2-2.3c0.1-0.4,0.7-0.7,0.9-1.1c1-1.4,1.7-1.5,2.9-0.4
			c0.6,0.5,1.7,0.8,1.3,1.9c-0.4,1.1-0.9,2.3-1.7,3.1C158.1,134.1,157,133.9,156.2,134z"/>
		<path class="color" d="M214.8,49.3c0.6,0.7,1.3,1.4,2,2.2c1.2,1.5,0.5,3.7-1.4,4c-0.8,0.1-1.8,0.8-2.5-0.5c-0.7-1.3-1.9-2.4-0.6-4
			c0.2-0.2,0.4-0.4,0.7-0.6C213.5,50.1,214.1,49.7,214.8,49.3z"/>
		<path class="color" d="M379.3,253.4c0.4-1.7,0.8-2.6,2.3-2.5c0.4,0,0.8-0.2,1.2-0.1c0.3,0,0.9,0.2,1,0.5c0.4,1.2,0.8,2.5,1.1,3.8
			c0,0.2-0.3,0.6-0.6,0.7c-0.6,0.2-1.3,0.4-1.9,0.4c-0.4,0-0.8-0.1-1.3-0.1c-0.3-0.1-0.8-0.1-0.9-0.3
			C379.8,254.8,379.5,253.9,379.3,253.4z"/>
		<path class="color" d="M236.4,195.5c-0.9,0.8-1.6,1.5-2.4,2c-0.2,0.2-0.8,0.1-1,0c-0.8-1.1-1.8-2.1-2.3-3.3c-0.5-1,1.5-2.7,2.8-2.5
			c1.1,0.2,2,0.5,2.2,1.8C235.9,194.3,236.3,195.1,236.4,195.5z"/>
		<path class="color" d="M269.8,295.3c0.2,0.2,0.8,0.6,1.1,1.1c0.3,0.5,0.6,1.2,0.7,1.8c0.1,0.6,0.1,1.7-0.2,1.9c-0.8,0.4-1.8,0.5-2.6,0.4
			c-1.2-0.2-2.3-0.7-2.4-2.3C266.2,296.6,267.8,294.9,269.8,295.3z"/>
		<path class="color" d="M150.1,155.7c-0.3-0.4-0.6-0.7-0.8-1c1.9-1.3,3.8-1.2,4.7,0.3c1,1.6,0.7,2.5-0.9,3.4c-1.3,0.8-2.5,0.1-3.7,0
			c-0.7-0.1-0.9-1.2-0.3-1.8C149.4,156.4,149.7,156.1,150.1,155.7z"/>
		<path class="color" d="M404.4,259.1c-0.1,0.6-2.6,2-3.2,1.6c-0.8-0.5-1.6-1.6-1.6-2.4c-0.1-1.6,1.4-3.3,2.3-3.2
			C403.5,255.3,404.7,257.1,404.4,259.1z"/>
		<path class="color" d="M139.8,155.6c-0.4,1.5-2,2.5-3.4,2.2c-0.7-0.2-1.6-1.9-1.4-2.8c0.3-1.4,1.8-2.6,2.8-2.4C139.5,153,140.2,154,139.8,155.6z
			"/>
		<path class="color" d="M76.4,117.9c0.5-1,0.8-2.1,1.5-2.8c0.4-0.5,1.5-0.4,2.3-0.4c0.3,0,0.7,0.6,0.9,0.9c0.2,0.2,0.3,0.6,0.2,0.9
			c-0.3,0.9-0.4,2.1-1,2.6c-0.5,0.4-1.7,0-2.5-0.2C77.3,118.8,76.9,118.3,76.4,117.9z"/>
		<path class="color" d="M89.3,128.8c0.8,0.3,1.7,0.5,2.5,0.8c0.1,0,0.3,0.2,0.3,0.4c0.3,0.7-0.2,2.8-1,3.4c-0.8,0.6-1.7,0.7-2.5,0.1
			c-0.5-0.4-1.8-0.1-1.2-1.4c0.3-0.6,0-1.5,0.9-1.9C88.8,130,89,129.3,89.3,128.8z"/>
	</g>
</g>
<g id="Art">
</g>
</svg>
